<svg xmlns="http://www.w3.org/2000/svg" viewBox="0 0 4696.95 4608.5">
  <!-- The Impossible Outcomes Company. Supplied artwork, unmodified geometry.
       Rendered through a CSS mask, so the fill here is ignored. -->
  <path d="M464.16,4608.5L0,4144.69l608.37-607.95C-7.41,2686.09,95.5,1516.97,855.62,789.47,1589.15,87.65,2716.06,12.83,3536.87,608.43L4145.08,0l463.98,463.84-608.42,608.45c270,370.08,407.35,814.35,399.61,1270.05-9.13,537.74-225.15,1050.67-601.72,1431.93-406.51,414.01-965.98,640.49-1547.72,625.33-424.64-11.07-835.23-148.33-1178.25-399.48l-608.4,608.38ZM2722.25,1422.81c-377.58-178.5-820.74-96.6-1109.31,193.53-286.46,288-368.62,728.52-189.84,1105.51l1299.15-1299.03ZM1887.03,3185.7c373.78,177.49,818.31,97.84,1108.29-193.23,288.98-290.07,367.65-733.39,190.49-1105.42l-1298.79,1298.65Z"/>
  <path d="M4696.95,4359.68c0,118.16-95.8,213.95-213.97,213.95s-213.97-95.79-213.97-213.95,95.8-213.95,213.97-213.95,213.97,95.79,213.97,213.95ZM4644.95,4359.53c0-89.49-72.55-162.04-162.05-162.04s-162.05,72.55-162.05,162.04,72.55,162.04,162.05,162.04,162.05-72.55,162.05-162.04Z"/>
  <path d="M4541.9,4388.15c34-19.35,43.3-52.13,34.57-86.07-7.11-27.63-34.72-49.4-69.14-49.51l-113.63-.35.31,214.54,60.13-.12.45-68.92,27.31,2.34,36.6,67.22,67.54-1.36-44.13-77.77ZM4518.33,4324.14l-12.61,26.09-51.75.2.64-50.34,44.83,2.61c6.52.38,21.78,15.48,18.9,21.43Z"/>
</svg>
